<svg width="18" height="4" viewBox="0 0 18 4" fill="none" xmlns="http://www.w3.org/2000/svg">
<path d="M8.74243 3C9.27699 3 9.71032 2.5523 9.71032 2C9.71032 1.4477 9.27699 1 8.74243 1C8.20786 1 7.77454 1.4477 7.77454 2C7.77454 2.5523 8.20786 3 8.74243 3Z" stroke="#C1C7D0" stroke-width="2" stroke-linecap="round" stroke-linejoin="round"/>
<path d="M15.5176 3C16.0521 3 16.4855 2.5523 16.4855 2C16.4855 1.4477 16.0521 1 15.5176 1C14.983 1 14.5497 1.4477 14.5497 2C14.5497 2.5523 14.983 3 15.5176 3Z" stroke="#C1C7D0" stroke-width="2" stroke-linecap="round" stroke-linejoin="round"/>
<path d="M1.96789 3C2.50244 3 2.93578 2.5523 2.93578 2C2.93578 1.4477 2.50244 1 1.96789 1C1.43334 1 1 1.4477 1 2C1 2.5523 1.43334 3 1.96789 3Z" stroke="#C1C7D0" stroke-width="2" stroke-linecap="round" stroke-linejoin="round"/>
</svg>
