<svg width="19" height="22" viewBox="0 0 19 22" fill="none" xmlns="http://www.w3.org/2000/svg">
<path d="M18.25 16.1398C17.5623 18.2298 15.5034 21.9303 13.3824 21.9707C11.9754 21.9991 11.523 21.0971 9.91475 21.0971C8.30738 21.0971 7.80425 21.9432 6.47425 21.9982C4.22375 22.0889 0.75 16.6568 0.75 11.9194C0.75 7.568 3.6445 5.41108 6.17325 5.37167C7.5295 5.346 8.8105 6.32958 9.63738 6.32958C10.4678 6.32958 12.0235 5.14708 13.6589 5.32033C14.3431 5.35058 16.2655 5.60908 17.4993 7.49925C14.2259 9.73775 14.736 14.4192 18.25 16.1398ZM13.6808 0C11.208 0.1045 9.19025 2.82242 9.472 5.07008C11.7575 5.25617 13.9503 2.57217 13.6808 0Z" fill="black"/>
</svg>
