<svg width="20" height="19" viewBox="0 0 20 19" fill="none" xmlns="http://www.w3.org/2000/svg">
<path d="M16.4721 16.4679C16.1602 16.4679 15.861 16.5918 15.6404 16.8124C15.4198 17.033 15.2959 17.3322 15.2959 17.6442C15.2959 17.9561 15.4198 18.2553 15.6404 18.4759C15.861 18.6965 16.1602 18.8204 16.4721 18.8204L18.8247 18.8204C19.1367 18.8204 19.4359 18.6965 19.6565 18.4759C19.877 18.2553 20.001 17.9561 20.001 17.6442L20.001 1.17627C20.001 0.864304 19.877 0.565113 19.6565 0.344517C19.4359 0.123922 19.1367 -5.79761e-06 18.8247 -5.82488e-06L16.4721 -6.03055e-06C16.1602 -6.05782e-06 15.861 0.123922 15.6404 0.344516C15.4198 0.565113 15.2959 0.864303 15.2959 1.17627C15.2959 1.48824 15.4198 1.78743 15.6404 2.00803C15.861 2.22862 16.1602 2.35255 16.4721 2.35255L17.6484 2.35255L17.6484 16.4679L16.4721 16.4679ZM0.21597 10.0925L3.53308 14.7976C3.71297 15.0512 3.98595 15.2232 4.29233 15.2761C4.59872 15.329 4.91359 15.2585 5.1681 15.0799C5.29532 14.9907 5.40362 14.8773 5.48675 14.746C5.56988 14.6148 5.6262 14.4684 5.65244 14.3153C5.67869 14.1622 5.67435 14.0054 5.63967 13.854C5.605 13.7026 5.54067 13.5595 5.45041 13.4331L3.42721 10.5865L12.9433 10.5865C13.2553 10.5865 13.5545 10.4626 13.7751 10.242C13.9957 10.0214 14.1196 9.72219 14.1196 9.41022C14.1196 9.09825 13.9957 8.79906 13.7751 8.57847C13.5545 8.35787 13.2553 8.23394 12.9433 8.23394L3.53308 8.23394L5.65038 5.41087C5.74306 5.2873 5.81049 5.14668 5.84883 4.99704C5.88717 4.8474 5.89566 4.69167 5.87381 4.53876C5.85197 4.38584 5.80021 4.23872 5.72151 4.1058C5.64281 3.97288 5.5387 3.85677 5.41512 3.76409C5.21151 3.61138 4.96387 3.52883 4.70935 3.52883C4.52674 3.52883 4.34664 3.57135 4.18331 3.65301C4.01997 3.73468 3.8779 3.85325 3.76833 3.99934L0.239495 8.70445C0.0888471 8.9034 0.00537385 9.1451 0.00114523 9.39462C-0.00308338 9.64413 0.0721501 9.88852 0.21597 10.0925Z" fill="#596E8D"/>
</svg>
