<svg width="20" height="19" viewBox="0 0 20 19" fill="none" xmlns="http://www.w3.org/2000/svg">
<path d="M3.52877 2.35247C3.84074 2.35247 4.13993 2.22854 4.36053 2.00794C4.58112 1.78735 4.70505 1.48816 4.70505 1.17619C4.70505 0.864219 4.58112 0.565028 4.36053 0.344433C4.13993 0.123838 3.84074 -9.08812e-05 3.52878 -9.09357e-05L1.17622 -9.13471e-05C0.864249 -9.14016e-05 0.565058 0.123838 0.344463 0.344433C0.123868 0.565028 -6.11863e-05 0.864218 -6.12408e-05 1.17619L-6.41202e-05 17.6441C-6.41747e-05 17.9561 0.123865 18.2552 0.34446 18.4758C0.565055 18.6964 0.864246 18.8204 1.17621 18.8204L3.52877 18.8204C3.84074 18.8204 4.13993 18.6964 4.36053 18.4758C4.58112 18.2552 4.70505 17.9561 4.70505 17.6441C4.70505 17.3321 4.58112 17.0329 4.36053 16.8123C4.13993 16.5917 3.84074 16.4678 3.52877 16.4678L2.35249 16.4678L2.3525 2.35247L3.52877 2.35247ZM19.7849 8.7279L16.4678 4.02278C16.2879 3.76919 16.015 3.59714 15.7086 3.54424C15.4022 3.49134 15.0873 3.56189 14.8328 3.74048C14.7056 3.82962 14.5973 3.94308 14.5142 4.07431C14.431 4.20554 14.3747 4.35193 14.3485 4.50504C14.3222 4.65815 14.3266 4.81494 14.3612 4.96636C14.3959 5.11778 14.4602 5.26084 14.5505 5.38727L16.5737 8.23386L7.05761 8.23386C6.74564 8.23386 6.44645 8.35779 6.22586 8.57838C6.00526 8.79898 5.88133 9.09817 5.88133 9.41014C5.88133 9.72211 6.00526 10.0213 6.22585 10.2419C6.44645 10.4625 6.74564 10.5864 7.05761 10.5864L16.4678 10.5864L14.3505 13.4095C14.2579 13.5331 14.1904 13.6737 14.1521 13.8233C14.1137 13.973 14.1053 14.1287 14.1271 14.2816C14.1489 14.4345 14.2007 14.5816 14.2794 14.7146C14.3581 14.8475 14.4622 14.9636 14.5858 15.0563C14.7894 15.209 15.037 15.2915 15.2916 15.2915C15.4742 15.2915 15.6543 15.249 15.8176 15.1673C15.9809 15.0857 16.123 14.9671 16.2326 14.821L19.7614 10.1159C19.9121 9.91696 19.9955 9.67526 19.9998 9.42574C20.004 9.17623 19.9288 8.93184 19.7849 8.7279Z" fill="#596E8D"/>
</svg>
