<svg width="20" height="20" viewBox="0 0 20 20" fill="none" xmlns="http://www.w3.org/2000/svg">
<path d="M18.75 0H1.25C0.56 0 0 0.56 0 1.25V15C0 15.69 0.56 16.25 1.25 16.25H5.7325L9.11625 19.6337C9.36 19.8775 9.68 20 10 20C10.32 20 10.64 19.8775 10.8837 19.6337L14.2675 16.25H18.75C19.44 16.25 20 15.69 20 15V1.25C20 0.56 19.44 0 18.75 0ZM10 2.5C11.3813 2.5 12.5 3.61875 12.5 5C12.5 6.38125 11.3813 7.5 10 7.5C8.61875 7.5 7.5 6.38125 7.5 5C7.5 3.61875 8.61875 2.5 10 2.5ZM5 12.5C5 12.5 6.25 10 10 10C13.75 10 15 12.5 15 12.5H5Z" fill="#B0B7C3"/>
<rect x="1.75" width="17.5" height="14" fill="#B0B7C3"/>
<path d="M8.8983 10.2527H10.5941V10.1006C10.6031 9.22805 10.9163 8.82088 11.6232 8.39581C12.4599 7.89915 13.0058 7.24141 13.0058 6.18991C13.0058 4.62386 11.744 3.71108 9.96768 3.71108C8.34347 3.71108 7.01903 4.56122 6.97876 6.35099H8.80433C8.83118 5.62166 9.37259 5.23239 9.95874 5.23239C10.5628 5.23239 11.0505 5.63508 11.0505 6.25703C11.0505 6.84318 10.6254 7.23246 10.0751 7.58146C9.32337 8.05575 8.90277 8.53452 8.8983 10.1006V10.2527ZM9.77976 13.1163C10.3525 13.1163 10.8491 12.6376 10.8536 12.0425C10.8491 11.4563 10.3525 10.9776 9.77976 10.9776C9.18913 10.9776 8.70142 11.4563 8.7059 12.0425C8.70142 12.6376 9.18913 13.1163 9.77976 13.1163Z" fill="white"/>
</svg>
