<svg width="17" height="16" viewBox="0 0 17 16" fill="none" xmlns="http://www.w3.org/2000/svg">
<path d="M8.5 15.5C12.6421 15.5 16 12.1421 16 8C16 3.85786 12.6421 0.5 8.5 0.5C4.35786 0.5 1 3.85786 1 8C1 12.1421 4.35786 15.5 8.5 15.5Z" stroke="#A2B1C3" stroke-linecap="round" stroke-linejoin="round"/>
<path d="M11.5 7C12.0523 7 12.5 6.55228 12.5 6C12.5 5.44772 12.0523 5 11.5 5C10.9477 5 10.5 5.44772 10.5 6C10.5 6.55228 10.9477 7 11.5 7Z" fill="#A2B1C3"/>
<path d="M5.5 7C6.05228 7 6.5 6.55228 6.5 6C6.5 5.44772 6.05228 5 5.5 5C4.94772 5 4.5 5.44772 4.5 6C4.5 6.55228 4.94772 7 5.5 7Z" fill="#A2B1C3"/>
<path d="M11.5 9.7998C11.1889 10.3175 10.7491 10.7459 10.2234 11.0433C9.69771 11.3407 9.104 11.497 8.5 11.497C7.896 11.497 7.30229 11.3407 6.77659 11.0433C6.25089 10.7459 5.81111 10.3175 5.5 9.7998" stroke="#A2B1C3" stroke-linecap="round" stroke-linejoin="round"/>
</svg>
