<svg width="16" height="16" viewBox="0 0 16 16" fill="none" xmlns="http://www.w3.org/2000/svg">
<circle cx="8" cy="8" r="7.5" stroke="white"/>
<path fill-rule="evenodd" clip-rule="evenodd" d="M7.8492 13.5689C7.57306 13.5689 7.3492 13.3451 7.3492 13.0689V11.4771H8.3492V13.0689C8.3492 13.3451 8.12534 13.5689 7.8492 13.5689ZM7.3492 3.28632V4.8684H8.3492V3.28632C8.3492 3.01017 8.12534 2.78632 7.8492 2.78632C7.57306 2.78632 7.3492 3.01017 7.3492 3.28632ZM4.38566 5.02417C4.33603 4.96347 4.37926 4.87243 4.45771 4.87243H6.21858C6.24597 4.87243 6.27196 4.88449 6.28964 4.90538L9.00197 8.11178C9.03127 8.14642 9.03127 8.19712 9.00197 8.23176L6.28964 11.4382C6.27196 11.4591 6.24597 11.4711 6.21858 11.4711H4.45771C4.37926 11.4711 4.33603 11.3801 4.38566 11.3194L6.91142 8.23057C6.9394 8.19635 6.9394 8.14719 6.91142 8.11298L4.38566 5.02417ZM11.4641 4.87243C11.5425 4.87243 11.5857 4.96347 11.5361 5.02417L9.31663 7.73841L8.29547 6.48552L9.63212 4.90538C9.6498 4.88449 9.6758 4.87243 9.70318 4.87243H11.4641ZM8.27075 9.82881L9.63212 11.4382C9.6498 11.4591 9.6758 11.4711 9.70318 11.4711H11.4641C11.5425 11.4711 11.5857 11.3801 11.5361 11.3194L9.30363 8.58924L8.27075 9.82881Z" fill="white"/>
</svg>
