<svg width="759" height="125" viewBox="0 0 759 125" fill="none" xmlns="http://www.w3.org/2000/svg">
<path opacity="0.16" d="M1 120.916L1.91268 119.476C2.42666 118.664 4.00997 118.242 5.44911 118.531C6.08195 118.659 6.61091 118.912 6.93726 119.243C7.64799 119.964 9.26125 120.224 10.5406 119.823C11.1287 119.639 11.5706 119.336 11.7764 118.974L15.3022 112.79C16.189 111.235 19.1443 110.379 21.9032 110.879C23.5711 111.182 24.8614 111.933 25.3427 112.883L26.8304 115.818C27.725 117.584 30.9887 118.606 34.1199 118.102C35.3573 117.902 36.4451 117.48 37.2173 116.9C38.6626 115.813 41.3965 115.593 43.3236 116.408C44.3479 116.841 44.9829 117.506 45.0603 118.226L45.5294 122.59C45.6183 123.417 46.8799 124.047 48.3472 123.997C49.5421 123.956 50.5416 123.471 50.7899 122.811L51.3536 121.313C51.8138 120.09 53.9455 119.308 56.1149 119.568C57.628 119.749 58.8222 120.404 59.1851 121.251C59.7219 122.505 61.9601 123.276 64.1842 122.974C65.7155 122.765 66.9047 122.085 67.2526 121.219L75.6239 100.374C76.1261 99.1235 78.3313 98.3393 80.5493 98.6224C81.5024 98.7441 82.3477 99.0529 82.9341 99.4937C84.2536 100.486 86.7495 100.687 88.5088 99.9427C89.2926 99.6113 89.8321 99.1286 90.0242 98.587L94.3775 86.3155C95.183 84.0451 99.1004 82.5727 103.127 83.0268C105.494 83.2936 107.484 84.1915 108.464 85.435L113.617 91.971C114.572 93.183 117.09 93.7288 119.239 93.1902C120.309 92.9221 121.137 92.4174 121.526 91.7949C122.201 90.7166 124.299 90.151 126.212 90.5315C127.28 90.7442 128.115 91.2231 128.473 91.8292L137.947 107.853C139.741 110.886 145.555 112.525 150.935 111.514C154.409 110.861 157.003 109.215 157.744 107.193L160.893 98.5876C161.685 96.4233 165.439 95.0308 169.278 95.4774C171.552 95.7419 173.453 96.6168 174.368 97.82L178.98 103.888C180.151 105.428 183.315 106.141 186.047 105.481C187.134 105.218 188.037 104.761 188.617 104.18C190.056 102.738 193.296 102.227 195.853 103.038C196.887 103.366 197.697 103.879 198.153 104.496L210.119 120.687C211.576 122.659 215.592 123.591 219.089 122.77C221.025 122.315 222.485 121.385 223.053 120.247L225.142 116.06C225.725 114.892 227.878 114.211 229.95 114.54C231.153 114.73 232.121 115.234 232.553 115.896C233.435 117.245 236.089 117.936 238.483 117.438C239.71 117.184 240.688 116.647 241.174 115.962L248.378 105.808C249.775 103.84 253.738 102.882 257.23 103.67C258.562 103.97 259.692 104.5 260.458 105.184C262.141 106.686 265.665 107.135 268.33 106.186C269.571 105.744 270.463 105.049 270.819 104.246L273.938 97.2119C274.731 95.4239 277.945 94.3368 281.116 94.7838C283.198 95.0772 284.835 95.9828 285.395 97.1506L288.234 103.073C289.068 104.813 292.247 105.843 295.335 105.373C296.582 105.183 297.681 104.763 298.456 104.18C300.633 102.543 304.751 102.212 307.654 103.439C308.642 103.857 309.401 104.423 309.844 105.073L311.518 107.527C312.965 109.647 317.186 110.705 320.946 109.89C322.645 109.521 324.038 108.808 324.852 107.89L329.119 103.08C331.631 100.246 333.784 97.3159 335.561 94.3107L339.174 88.2004C339.722 87.2726 341.501 86.7712 343.147 87.0805C343.81 87.205 344.38 87.4505 344.767 87.7781C345.637 88.5141 347.401 88.713 348.707 88.2223C349.295 88.0013 349.716 87.6647 349.887 87.2781L357.301 70.5593C358.44 67.9908 363.056 66.4293 367.612 67.0714C370.752 67.514 373.174 68.9234 373.86 70.7068L379.163 84.5065C379.798 86.1577 382.686 87.2062 385.615 86.8484C386.833 86.6996 387.924 86.3187 388.703 85.7697C391.951 83.4804 397.877 83.1092 401.938 84.9407C402.405 85.1514 402.835 85.3868 403.223 85.6436L409.483 89.7865C413.187 92.238 419.715 92.5324 424.063 90.4441C425.805 89.6075 427.006 88.4689 427.477 87.2066L430.264 79.7446C431.26 77.0759 435.905 75.368 440.639 75.9298C443.785 76.3033 446.316 77.6187 447.231 79.3565L449.445 83.5611C450.873 86.2738 455.932 87.8201 460.744 87.0147C463.984 86.4725 466.422 84.9614 467.075 83.0919C468.04 80.3252 472.801 78.5236 477.708 79.0678C481.018 79.4349 483.691 80.8085 484.646 82.6324L484.886 83.0919C486.046 85.3077 490.172 86.5739 494.103 85.9201C496.993 85.4392 499.08 84.0205 499.385 82.3302L502.527 64.8677C502.912 62.7262 506.304 61.1662 510.103 61.3835C511.54 61.4657 512.896 61.7997 513.979 62.3386C518.639 64.657 525.751 64.4064 529.863 61.7789C530.306 61.4962 530.702 61.1919 531.049 60.8696L536.398 55.8937C539.929 52.6088 547.515 51.5598 553.342 53.5506C555.289 54.216 556.872 55.1722 557.915 56.3134C559.877 58.4612 564.556 59.3054 568.366 58.1989C570.456 57.5919 571.945 56.4835 572.415 55.1848L575.421 46.8799C576.239 44.62 580.152 43.1618 584.161 43.6231C586.451 43.8866 588.387 44.7442 589.382 45.9368C591.024 47.9038 595.183 48.748 598.672 47.8224C600.743 47.273 602.205 46.1864 602.585 44.914L614.83 3.89959C615.395 2.00648 618.575 0.730123 621.933 1.04877C624.214 1.26519 626.088 2.18302 626.787 3.42594L632.748 14.0254C633.919 16.1072 635.269 18.1554 636.795 20.1627L639.849 24.1793C640.707 25.3088 643.027 25.832 645.031 25.3479C646.272 25.0481 647.155 24.4115 647.372 23.6603L650.085 14.2649C650.63 12.3749 653.791 11.0921 657.143 11.3998C659.227 11.5911 660.992 12.3719 661.816 13.4679L664.918 17.5892C666.424 19.5913 670.524 20.5258 674.076 19.6764C675.385 19.3632 676.494 18.8321 677.253 18.1541C678.691 16.8712 681.7 16.488 683.976 17.2983C685.191 17.7308 686.005 18.4434 686.201 19.2458L688.42 28.3163C688.892 30.2436 689.512 32.1584 690.279 34.0552L699.416 56.6402C700.325 58.8882 704.295 60.2948 708.282 59.7821C710.617 59.482 712.55 58.5638 713.471 57.3176C714.898 55.3864 718.832 54.4732 722.257 55.2778C724.382 55.7769 725.906 56.8545 726.295 58.1335L735.904 89.6807C736.386 91.2637 739.053 92.3266 741.861 92.0548C744.164 91.8318 745.914 90.7638 746.126 89.4518L748.194 76.6218C748.458 74.9868 751.023 73.7818 753.923 73.9304C755.622 74.0175 757.141 74.5624 758 75.3931" stroke="#A2B1C3" stroke-width="2" stroke-linecap="round" stroke-linejoin="round"/>
</svg>
